<svg width="21" height="13" viewBox="0 0 21 13" fill="none" xmlns="http://www.w3.org/2000/svg">
<path fill-rule="evenodd" clip-rule="evenodd" d="M11.8997 0.329398C12.0167 0.125639 12.2338 0 12.4688 0H15.75C16.2722 0 16.7729 0.207421 17.1421 0.576634C17.5113 0.945847 17.7188 1.4466 17.7188 1.96875C17.7188 2.3312 17.425 2.625 17.0625 2.625C16.7001 2.625 16.4063 2.3312 16.4063 1.96875C16.4063 1.7947 16.3371 1.62778 16.214 1.50471C16.091 1.38164 15.924 1.3125 15.75 1.3125H13.6113L17.6294 8.20057C17.812 8.51366 17.7062 8.91548 17.3932 9.09812C17.0801 9.28075 16.6783 9.17497 16.4956 8.86193L11.9019 0.986915C11.7835 0.783943 11.7826 0.533157 11.8997 0.329398Z" fill="black"/>
<path fill-rule="evenodd" clip-rule="evenodd" d="M17.0625 5.90625C15.6128 5.90625 14.4375 7.08153 14.4375 8.53125C14.4375 9.98097 15.6128 11.1562 17.0625 11.1562C18.5122 11.1562 19.6875 9.98097 19.6875 8.53125C19.6875 7.08153 18.5122 5.90625 17.0625 5.90625ZM13.125 8.53125C13.125 6.35663 14.8879 4.59375 17.0625 4.59375C19.2371 4.59375 21 6.35663 21 8.53125C21 10.7059 19.2371 12.4688 17.0625 12.4688C14.8879 12.4688 13.125 10.7059 13.125 8.53125Z" fill="black"/>
<path fill-rule="evenodd" clip-rule="evenodd" d="M3.9375 5.90625C2.48775 5.90625 1.3125 7.08153 1.3125 8.53125C1.3125 9.98097 2.48775 11.1562 3.9375 11.1562C5.38725 11.1562 6.5625 9.98097 6.5625 8.53125C6.5625 7.08153 5.38725 5.90625 3.9375 5.90625ZM0 8.53125C0 6.35663 1.76288 4.59375 3.9375 4.59375C6.11212 4.59375 7.875 6.35663 7.875 8.53125C7.875 10.7059 6.11212 12.4688 3.9375 12.4688C1.76288 12.4688 0 10.7059 0 8.53125Z" fill="black"/>
<path fill-rule="evenodd" clip-rule="evenodd" d="M3.28125 0.65625C3.28125 0.293816 3.57507 0 3.9375 0H6.23438C6.46778 0 6.68364 0.123972 6.80124 0.325585L11.395 8.20057C11.5776 8.51366 11.4718 8.91548 11.1588 9.09812C10.8457 9.28075 10.4439 9.17497 10.2613 8.86193L5.85744 1.3125H3.9375C3.57507 1.3125 3.28125 1.01868 3.28125 0.65625Z" fill="black"/>
<path fill-rule="evenodd" clip-rule="evenodd" d="M7.23825 2.89446C7.36183 2.72514 7.55883 2.625 7.76837 2.625H13.9535C14.316 2.625 14.6098 2.9188 14.6098 3.28125C14.6098 3.6437 14.316 3.9375 13.9535 3.9375H8.10195L4.46767 8.91804C4.25403 9.21086 3.8435 9.27498 3.55072 9.06137C3.25794 8.84776 3.19379 8.43721 3.40742 8.14446L7.23825 2.89446Z" fill="black"/>
</svg>
