<svg width="16" height="16" viewBox="0 0 16 16" fill="none" xmlns="http://www.w3.org/2000/svg">
<path d="M2.59827 15C2.59827 15.5517 3.04661 16 3.59827 16H4.81995C5.37161 16 5.81995 15.5517 5.81995 15V14.58H2.59827V15Z" fill="black"/>
<path d="M10.1801 15C10.1801 15.5517 10.6284 16 11.1801 16H12.4017C12.9534 16 13.4017 15.5517 13.4017 15V14.58H10.1801V15Z" fill="black"/>
<path d="M15 3.68666H14.5417V2C14.5417 0.898344 13.645 0 12.5417 0H3.45831C2.35666 0 1.45831 0.898344 1.45831 2V3.68666H1C0.448344 3.68666 0 4.135 0 4.68666V6.42166C0 6.97331 0.448344 7.42166 1 7.42166H1.45831V12.9133C1.45831 13.465 1.90666 13.9133 2.45831 13.9133H13.5416C14.0933 13.9133 14.5416 13.465 14.5416 12.9133V7.42166H14.9999C15.5516 7.42166 15.9999 6.97331 15.9999 6.42166V4.68666C16 4.135 15.5516 3.68666 15 3.68666ZM2.12503 9.90666V3.48334H7.66838V9.90666H5.33784L5.80813 9.69984C6.53341 9.38084 7.00216 8.66231 7.00216 7.86944V6.53113C7.00441 6.51566 7.00556 6.49981 7.00556 6.48375C7.00541 6.29969 6.85631 6.15041 6.67222 6.15041C6.48813 6.15041 6.33547 6.303 6.33547 6.48709V7.86944C6.33547 8.398 6.02313 8.877 5.53972 9.08966L3.68184 9.90663H2.12503V9.90666ZM3.88003 12.905C3.36838 12.905 2.95338 12.49 2.95338 11.9783C2.95338 11.4683 3.36838 11.0517 3.88003 11.0517C4.39003 11.0517 4.80669 11.4683 4.80669 11.9783C4.80669 12.49 4.39003 12.905 3.88003 12.905ZM9.77997 12.3117H6.22C6.03666 12.3117 5.88666 12.1633 5.88666 11.9783C5.88666 11.795 6.03666 11.645 6.22 11.645H9.78C9.965 11.645 10.1133 11.795 10.1133 11.9783C10.1133 12.1633 9.965 12.3117 9.77997 12.3117ZM12.1217 12.905C11.61 12.905 11.195 12.49 11.195 11.9783C11.195 11.4683 11.61 11.0517 12.1217 11.0517C12.6317 11.0517 13.0483 11.4683 13.0483 11.9783C13.0483 12.49 12.6317 12.905 12.1217 12.905ZM13.875 9.90666H12.3224L10.4647 9.08969C9.98125 8.87703 9.66875 8.39803 9.66875 7.86947V6.48713C9.66875 6.30306 9.51622 6.15044 9.33216 6.15044C9.1481 6.15044 8.99897 6.29969 8.99881 6.48378C8.99881 6.49947 8.99997 6.51494 9.00206 6.53009V7.86947C9.00206 8.66238 9.47081 9.38088 10.1963 9.69988L10.6665 9.90669H8.33494V3.48334H13.8749L13.875 9.90666Z" fill="black"/>
</svg>
