<svg width="17" height="15" viewBox="0 0 17 15" fill="none" xmlns="http://www.w3.org/2000/svg">
<path d="M16.458 9.60279V7.75639C16.458 7.17845 16.2307 6.62439 15.8269 6.218L15.0718 5.45813L14.344 1.74049C14.1459 0.728636 13.2735 0 12.26 0H11.6336H10.5L7.26188 1.90735e-06L5.36647 0H4.74002C3.72651 0 2.85407 0.728636 2.65597 1.74049L1.9282 5.45817L1.17314 6.21804C0.769383 6.62444 0.542134 7.17841 0.542134 7.75639V9.6031C0.212672 9.86338 0 10.2701 0 10.7266V11.6434C0 12.4275 0.626625 13.0653 1.3969 13.0653H1.79836V14.2262C1.79836 14.4622 1.98634 14.6535 2.21818 14.6535H3.98687C4.21867 14.6535 4.40665 14.4622 4.40665 14.2262V13.0653H12.5934V14.2262C12.5934 14.4622 12.7814 14.6535 13.0133 14.6535H14.7819C15.0137 14.6535 15.2016 14.4622 15.2016 14.2262V13.0653H15.6031C16.3734 13.0653 17 12.4275 17 11.6434V10.7266C17.0001 10.2758 16.7904 9.86559 16.458 9.60279ZM14.0251 8.62439C14.0251 9.11675 13.7199 9.53642 13.2916 9.69837H12.508C12.0798 9.53642 11.7745 9.11675 11.7745 8.62439C11.7745 7.99176 12.2784 7.47889 12.8999 7.47889C13.5213 7.47889 14.0251 7.99176 14.0251 8.62439ZM4.37375 2.41474C4.49292 1.80521 5.01874 1.36624 5.62921 1.36624H11.3709C11.9814 1.36624 12.5071 1.80521 12.6264 2.41474L13.0648 4.65442H3.93532L4.37375 2.41474ZM10.4941 8.91124C10.4941 9.26134 10.2895 9.56217 9.99561 9.69837H7.00448C6.71063 9.56217 6.50599 9.26126 6.50599 8.91124C6.50599 8.43333 6.88654 8.04593 7.356 8.04593H9.64404C10.1135 8.04593 10.4941 8.43333 10.4941 8.91124ZM4.1003 7.47889C4.72174 7.47889 5.22558 7.99176 5.22558 8.62439C5.22558 9.11675 4.92039 9.53642 4.49211 9.69837H3.70849C3.28017 9.53642 2.97502 9.11675 2.97502 8.62439C2.97502 7.99176 3.47882 7.47889 4.1003 7.47889ZM15.6136 11.6434C15.6136 11.649 15.6088 11.6538 15.6032 11.6538H1.3969C1.39129 11.6538 1.38657 11.649 1.38657 11.6434V10.7266C1.38657 10.7209 1.39129 10.7161 1.3969 10.7161H15.6032C15.6088 10.7161 15.6136 10.7209 15.6136 10.7266V11.6434Z" fill="black"/>
</svg>
