<svg width="24" height="24" viewBox="0 0 24 24" fill="none" xmlns="http://www.w3.org/2000/svg">
<path d="M13.4271 12L19.8954 5.53214C20.0346 5.39275 20.0346 5.16689 19.8954 5.0275L18.9729 4.1045C18.906 4.03776 18.815 4 18.7204 4C18.6257 4 18.5348 4.03776 18.4679 4.1045L11.9998 10.5725L5.5317 4.1045C5.3977 3.9705 5.16054 3.97067 5.02688 4.1045L4.10455 5.0275C3.96515 5.16689 3.96515 5.39275 4.10455 5.53214L10.5727 12L4.10455 18.4679C3.96515 18.6073 3.96515 18.8331 4.10455 18.9725L5.02705 19.8955C5.09396 19.9622 5.18481 20 5.27954 20C5.37427 20 5.46495 19.9622 5.53187 19.8955L12 13.4275L18.4681 19.8955C18.535 19.9622 18.626 20 18.7206 20C18.8151 20 18.9062 19.9622 18.9731 19.8955L19.8956 18.9725C20.0348 18.8331 20.0348 18.6073 19.8956 18.4679L13.4271 12Z" fill="#4D4D4D"/>
</svg>
