<svg width="24" height="18" viewBox="0 0 24 18" fill="none" xmlns="http://www.w3.org/2000/svg">
<path d="M15.5 8.50208H21.69C18.785 5.37208 18.055 4.00208 15 4.00208V8.00208C15 8.13468 15.0527 8.26186 15.1464 8.35563C15.2402 8.4494 15.3674 8.50208 15.5 8.50208Z" fill="black"/>
<path d="M11 4.00208H9C8.72386 4.00208 8.5 4.22593 8.5 4.50208V8.00208C8.5 8.27822 8.72386 8.50208 9 8.50208H11C11.2761 8.50208 11.5 8.27822 11.5 8.00208V4.50208C11.5 4.22593 11.2761 4.00208 11 4.00208Z" fill="black"/>
<path d="M5 4.00208H3C2.72386 4.00208 2.5 4.22593 2.5 4.50208V8.00208C2.5 8.27822 2.72386 8.50208 3 8.50208H5C5.27614 8.50208 5.5 8.27822 5.5 8.00208V4.50208C5.5 4.22593 5.27614 4.00208 5 4.00208Z" fill="black"/>
<path d="M22.695 9.58208C22.59 9.46708 23.385 9.50208 15.5 9.50208C15.1022 9.50208 14.7206 9.34404 14.4393 9.06274C14.158 8.78143 14 8.3999 14 8.00208V4.00208H12.41C12.54 4.33208 12.5 4.24708 12.5 8.00208C12.5 8.3999 12.342 8.78143 12.0607 9.06274C11.7794 9.34404 11.3978 9.50208 11 9.50208H9C8.60218 9.50208 8.22064 9.34404 7.93934 9.06274C7.65804 8.78143 7.5 8.3999 7.5 8.00208C7.5 4.26708 7.465 4.32208 7.59 4.00208H6.41C6.54 4.33208 6.5 4.24708 6.5 8.00208C6.5 8.3999 6.34196 8.78143 6.06066 9.06274C5.77936 9.34404 5.39782 9.50208 5 9.50208H3C2.60218 9.50208 2.22064 9.34404 1.93934 9.06274C1.65804 8.78143 1.5 8.3999 1.5 8.00208C1.5 4.26708 1.465 4.32208 1.59 4.00208H0.5V11.5021H23.5C23.4695 10.7865 23.1839 10.1055 22.695 9.58208Z" fill="black"/>
<path d="M23.5 13.5021V12.5021H0.5V15.0021H22C22.3978 15.0021 22.7794 14.844 23.0607 14.5627C23.342 14.2814 23.5 13.8999 23.5 13.5021Z" fill="black"/>
<path d="M23.5 17.0021H19.61C19.8589 16.7283 19.9978 16.3721 20 16.0021H17C17.0022 16.3721 17.1411 16.7283 17.39 17.0021H16.61C16.8589 16.7283 16.9978 16.3721 17 16.0021H14C14.0022 16.3721 14.1411 16.7283 14.39 17.0021H8.61C8.85889 16.7283 8.9978 16.3721 9 16.0021H6C6.00221 16.3721 6.14111 16.7283 6.39 17.0021H5.61C5.85889 16.7283 5.99779 16.3721 6 16.0021H3C3.00221 16.3721 3.14111 16.7283 3.39 17.0021H0.5C0.367392 17.0021 0.240215 17.0548 0.146447 17.1485C0.0526784 17.2423 0 17.3695 0 17.5021C0 17.6347 0.0526784 17.7619 0.146447 17.8556C0.240215 17.9494 0.367392 18.0021 0.5 18.0021H23.5C23.6326 18.0021 23.7598 17.9494 23.8536 17.8556C23.9473 17.7619 24 17.6347 24 17.5021C24 17.3695 23.9473 17.2423 23.8536 17.1485C23.7598 17.0548 23.6326 17.0021 23.5 17.0021Z" fill="black"/>
<path d="M10 2.00205H8.705L6.855 0.147046C6.76085 0.052894 6.63315 -1.9841e-09 6.5 0C6.36685 1.9841e-09 6.23915 0.052894 6.145 0.147046C6.05085 0.241198 5.99795 0.368895 5.99795 0.502046C5.99795 0.635197 6.05085 0.762894 6.145 0.857046L7.295 2.00205H6.205L4.355 0.147046C4.26085 0.052894 4.13315 -9.92051e-10 4 0C3.86685 9.92051e-10 3.73915 0.052894 3.645 0.147046C3.55085 0.241198 3.49795 0.368895 3.49795 0.502046C3.49795 0.635197 3.55085 0.762894 3.645 0.857046L4.795 2.00205H4C3.73478 2.00205 3.48043 2.1074 3.29289 2.29494C3.10536 2.48248 3 2.73683 3 3.00205H11C11 2.73683 10.8946 2.48248 10.7071 2.29494C10.5196 2.1074 10.2652 2.00205 10 2.00205Z" fill="black"/>
</svg>
