<svg width="24" height="14" viewBox="0 0 24 14" fill="none" xmlns="http://www.w3.org/2000/svg">
<path d="M15.5 4.5H21.69C18.785 1.37 18.055 0 15 0V4C15 4.13261 15.0527 4.25979 15.1464 4.35355C15.2402 4.44732 15.3674 4.5 15.5 4.5Z" fill="black"/>
<path d="M11 0H9C8.72386 0 8.5 0.223858 8.5 0.5V4C8.5 4.27614 8.72386 4.5 9 4.5H11C11.2761 4.5 11.5 4.27614 11.5 4V0.5C11.5 0.223858 11.2761 0 11 0Z" fill="black"/>
<path d="M5 0H3C2.72386 0 2.5 0.223858 2.5 0.5V4C2.5 4.27614 2.72386 4.5 3 4.5H5C5.27614 4.5 5.5 4.27614 5.5 4V0.5C5.5 0.223858 5.27614 0 5 0Z" fill="black"/>
<path d="M22.695 5.58C22.59 5.465 23.385 5.5 15.5 5.5C15.1022 5.5 14.7206 5.34196 14.4393 5.06066C14.158 4.77936 14 4.39782 14 4V0H12.41C12.54 0.33 12.5 0.245 12.5 4C12.5 4.39782 12.342 4.77936 12.0607 5.06066C11.7794 5.34196 11.3978 5.5 11 5.5H9C8.60218 5.5 8.22064 5.34196 7.93934 5.06066C7.65804 4.77936 7.5 4.39782 7.5 4C7.5 0.265 7.465 0.32 7.59 0H6.41C6.54 0.33 6.5 0.245 6.5 4C6.5 4.39782 6.34196 4.77936 6.06066 5.06066C5.77936 5.34196 5.39782 5.5 5 5.5H3C2.60218 5.5 2.22064 5.34196 1.93934 5.06066C1.65804 4.77936 1.5 4.39782 1.5 4C1.5 0.265 1.465 0.32 1.59 0H0.5V7.5H23.5C23.4695 6.78443 23.1839 6.10339 22.695 5.58Z" fill="black"/>
<path d="M23.5 9.5V8.5H0.5V11H22C22.3978 11 22.7794 10.842 23.0607 10.5607C23.342 10.2794 23.5 9.89782 23.5 9.5Z" fill="black"/>
<path d="M23.5 13H19.61C19.8589 12.7262 19.9978 12.37 20 12H17C17.0022 12.37 17.1411 12.7262 17.39 13H16.61C16.8589 12.7262 16.9978 12.37 17 12H14C14.0022 12.37 14.1411 12.7262 14.39 13H8.61C8.85889 12.7262 8.9978 12.37 9 12H6C6.00221 12.37 6.14111 12.7262 6.39 13H5.61C5.85889 12.7262 5.99779 12.37 6 12H3C3.00221 12.37 3.14111 12.7262 3.39 13H0.5C0.367392 13 0.240215 13.0527 0.146447 13.1464C0.0526784 13.2402 0 13.3674 0 13.5C0 13.6326 0.0526784 13.7598 0.146447 13.8536C0.240215 13.9473 0.367392 14 0.5 14H23.5C23.6326 14 23.7598 13.9473 23.8536 13.8536C23.9473 13.7598 24 13.6326 24 13.5C24 13.3674 23.9473 13.2402 23.8536 13.1464C23.7598 13.0527 23.6326 13 23.5 13Z" fill="black"/>
</svg>
