<svg width="11" height="16" viewBox="0 0 11 16" fill="none" xmlns="http://www.w3.org/2000/svg">
<path fill-rule="evenodd" clip-rule="evenodd" d="M3.45019 15.5672C3.32478 15.7705 3.12423 15.9157 2.89237 15.9712C2.66051 16.0266 2.41618 15.9878 2.21276 15.8632C2.00935 15.7387 1.86337 15.5384 1.80673 15.3063C1.75009 15.0741 1.78739 14.829 1.91048 14.6243L3.97683 11.263L4.4105 9.50371C4.43128 9.52805 4.45166 9.55255 4.47188 9.57735L5.87332 11.0886L5.70163 11.7843C5.68187 11.8947 5.64177 12.0004 5.58337 12.096L3.45019 15.5672ZM10.3429 14.7647L9.00012 11.1986C8.95297 11.0726 8.87854 10.9586 8.78218 10.8649L6.68385 8.53592V4.71477C6.68329 4.42497 6.56822 4.1472 6.36383 3.94227C6.15944 3.73735 5.88239 3.62198 5.59334 3.62141C5.29947 3.62141 5.17486 3.70292 4.93604 3.82282L0.400821 6.44808C0.309506 6.5011 0.229504 6.57164 0.16538 6.65567C0.101255 6.7397 0.054266 6.83556 0.0270948 6.9378C-7.62939e-05 7.04003 -0.00689697 7.14663 0.00702095 7.2515C0.0209389 7.35638 0.0553236 7.45748 0.108212 7.54904C0.161101 7.64059 0.231458 7.7208 0.315265 7.78509C0.399072 7.84938 0.494689 7.89649 0.596656 7.92374C0.698623 7.95098 0.804944 7.95782 0.909547 7.94386C1.01415 7.92991 1.11499 7.89543 1.2063 7.84241L4.5029 5.93413V8.49802C4.5029 8.96953 4.56321 8.95163 4.82294 9.27044L7.35408 12L8.63742 15.4084C8.72259 15.6352 8.89409 15.8187 9.11422 15.9186C9.33434 16.0186 9.58505 16.0268 9.81119 15.9414C10.0373 15.856 10.2204 15.684 10.3201 15.4634C10.4197 15.2427 10.4279 14.9913 10.3427 14.7646L10.3429 14.7647ZM6.01558 0C6.27885 0 6.53621 0.0782727 6.75511 0.22492C6.97401 0.371567 7.14463 0.580003 7.24538 0.823869C7.34612 1.06773 7.37249 1.33608 7.32112 1.59496C7.26976 1.85385 7.14299 2.09165 6.95682 2.2783C6.77066 2.46495 6.53348 2.59205 6.27527 2.64355C6.01706 2.69504 5.74941 2.66862 5.50618 2.5676C5.26295 2.46659 5.05506 2.29553 4.9088 2.07606C4.76253 1.85659 4.68446 1.59855 4.68446 1.3346C4.68446 0.980639 4.8247 0.64118 5.07434 0.390894C5.32397 0.140609 5.66255 0 6.01558 0ZM7.14931 7.08886V4.75067L8.20484 5.8368L10.4112 6.46051C10.6158 6.51741 10.7896 6.65315 10.8947 6.83808C10.9997 7.02302 11.0275 7.24213 10.972 7.44757C10.9165 7.653 10.7822 7.82806 10.5984 7.93452C10.4145 8.04099 10.1962 8.0702 9.99095 8.01578L7.48953 7.33683C7.40466 7.31485 7.32747 7.26988 7.26641 7.20683L7.14931 7.08886Z" fill="black"/>
</svg>
