<svg width="19" height="19" viewBox="0 0 19 19" fill="none" xmlns="http://www.w3.org/2000/svg">
<path fill-rule="evenodd" clip-rule="evenodd" d="M13.125 3.22582H12.724V1.75C12.724 0.786051 11.9394 0 10.974 0H3.02602C2.06207 0 1.27602 0.786051 1.27602 1.75V3.22582H0.875C0.392301 3.22582 0 3.61813 0 4.10082V5.61895C0 6.10165 0.392301 6.49395 0.875 6.49395H1.27602V11.2992C1.27602 11.7818 1.66832 12.1742 2.15102 12.1742H8.04179L7.8281 12.3892C7.54309 12.6761 7.38268 13.0671 7.38268 13.4751V14.7787C7.15012 14.9624 7 15.2495 7 15.5717V16.2189C7 16.7723 7.44232 17.2226 7.98605 17.2226H8.26943V18.042C8.26943 18.2086 8.40212 18.3437 8.56577 18.3437H9.81426C9.97788 18.3437 10.1106 18.2086 10.1106 18.042V17.2226H15.8895V18.042C15.8895 18.2086 16.0222 18.3437 16.1858 18.3437H17.4343C17.5979 18.3437 17.7306 18.2086 17.7306 18.042V17.2226H18.0139C18.5577 17.2226 19 16.7723 19 16.2189V15.5717C19.0001 15.2535 18.8521 14.9639 18.6174 14.7784V13.4751C18.6174 13.0671 18.457 12.676 18.172 12.3892L17.6389 11.8528L17.1252 9.22858C16.9854 8.51433 16.3696 8 15.6541 8H15.212H14.4118L12.7239 8V6.49395H13.1249C13.6076 6.49395 13.9999 6.10165 13.9999 5.61895V4.10082C14 3.61813 13.6077 3.22582 13.125 3.22582ZM12.1406 8L12.1406 3.04793H7.29307V8.66835H9.10532C9.12272 8.64232 9.14088 8.61689 9.15977 8.59208L8.92172 8.48739C8.28696 8.20827 7.87681 7.57958 7.87681 6.88579V5.71383C7.87497 5.70057 7.87396 5.68704 7.87396 5.67331C7.8741 5.51223 8.00458 5.38163 8.16564 5.38163C8.32669 5.38163 8.46016 5.51518 8.46016 5.67624V6.88579C8.46016 7.34828 8.73359 7.7674 9.15657 7.95348L9.65381 8.17214C9.86211 8.06174 10.098 8 10.3459 8H10.7881L12.126 8H12.1406ZM8.68134 10.2168C8.64381 10.1992 8.60186 10.1894 8.5575 10.1894H5.4425C5.28207 10.1894 5.15082 10.3206 5.15082 10.4811C5.15082 10.6429 5.28207 10.7727 5.4425 10.7727H8.55747C8.56255 10.7727 8.56759 10.7726 8.57259 10.7723L8.68134 10.2168ZM1.8594 8.66833V3.04793H6.70983V8.66833H4.67061L5.08211 8.48736C5.71673 8.20824 6.12689 7.57952 6.12689 6.88576V5.71474C6.12886 5.7012 6.12987 5.68734 6.12987 5.67328C6.12973 5.51223 5.99927 5.38161 5.83819 5.38161C5.67711 5.38161 5.54354 5.51513 5.54354 5.67621V6.88576C5.54354 7.34825 5.27023 7.76738 4.84725 7.95345L3.22161 8.6683L1.8594 8.66833ZM3.39503 11.2919C2.94733 11.2919 2.5842 10.9288 2.5842 10.4811C2.5842 10.0348 2.94733 9.67023 3.39503 9.67023C3.84128 9.67023 4.20585 10.0348 4.20585 10.4811C4.20585 10.9288 3.84128 11.2919 3.39503 11.2919ZM2.27359 13.125C2.27359 13.6077 2.66589 14 3.14859 14H4.21757C4.70027 14 5.09257 13.6077 5.09257 13.125V12.7575H2.27359V13.125ZM16.3823 14.8459C16.6846 14.7316 16.9001 14.4354 16.9001 14.0878C16.9001 13.6412 16.5445 13.2792 16.1058 13.2792C15.6671 13.2792 15.3114 13.6412 15.3114 14.0878C15.3114 14.4354 15.5269 14.7316 15.8292 14.8459H16.3823ZM10.9736 8.96441C10.5426 8.96441 10.1715 9.27427 10.0874 9.70452L9.77787 11.2855H16.2222L15.9127 9.70452C15.8286 9.27427 15.4575 8.96441 15.0265 8.96441H10.9736ZM14.0557 14.8459C14.2632 14.7498 14.4076 14.5374 14.4076 14.2903C14.4076 13.9529 14.1389 13.6795 13.8076 13.6795H12.1925C11.8611 13.6795 11.5925 13.9529 11.5925 14.2903C11.5925 14.5374 11.7369 14.7498 11.9443 14.8459H14.0557ZM10.6886 14.0878C10.6886 13.6412 10.333 13.2792 9.89433 13.2792C9.45564 13.2792 9.10002 13.6412 9.10002 14.0878C9.10002 14.4354 9.31542 14.7316 9.61776 14.8459H10.1709C10.4732 14.7316 10.6886 14.4354 10.6886 14.0878ZM18.014 16.2262C18.018 16.2262 18.0213 16.2229 18.0213 16.2189V15.5717C18.0213 15.5677 18.018 15.5643 18.014 15.5643H7.98605C7.98209 15.5643 7.97876 15.5677 7.97876 15.5717V16.2189C7.97876 16.2229 7.98209 16.2262 7.98605 16.2262H18.014Z" fill="black"/>
</svg>
