<svg width="24" height="19" viewBox="0 0 24 19" fill="none" xmlns="http://www.w3.org/2000/svg">
<path d="M12.0003 0C5.37284 0 0 5.42383 0 12.1145C0 15.7424 1.56563 18.1084 1.56563 18.1084L22.4298 18.1094C22.4298 18.1094 24 15.5236 24 12.1143C24 5.42383 18.6272 0 12.0003 0ZM21.5497 16.6336L2.48877 16.6253C2.48877 16.6253 1.47309 14.7019 1.47309 12.0763C1.47309 6.21217 6.20419 1.45799 12.0405 1.45799C17.8765 1.45799 22.6079 6.21192 22.6079 12.0763C22.6081 14.7315 21.5497 16.6336 21.5497 16.6336Z" fill="black"/>
<path d="M15.3915 3.21696L15.2408 3.21671L12.0399 9.48898L8.72383 3.16315L4.1836 14.5909H3.01025V15.5088H9.43825V14.5909H8.16281L9.43825 11.0194L12.0399 15.5088L14.5398 11.0194L15.8149 14.5909H14.5398V15.5088H20.9165V14.5909H19.8118L15.3915 3.21696Z" fill="black"/>
</svg>
