<svg width="22" height="12" viewBox="0 0 22 12" fill="none" xmlns="http://www.w3.org/2000/svg">
<path d="M12.7849 3.2325L8.93742 0.09375H7.97742L9.88992 3.20625L12.7849 3.2325Z" fill="black"/>
<path d="M12.7849 3.33375L9.87492 3.3C9.85884 3.30101 9.8428 3.29729 9.82881 3.28929C9.81481 3.2813 9.80347 3.26937 9.79617 3.255L7.88367 0.1425C7.87508 0.128381 7.87036 0.112241 7.87002 0.0957141C7.86967 0.0791876 7.8737 0.0628628 7.88169 0.0483949C7.88969 0.033927 7.90137 0.02183 7.91554 0.0133309C7.92972 0.00483188 7.94589 0.00023317 7.96242 0H8.93742C8.9588 0.000421835 8.97961 0.00692548 8.99742 0.0187497L12.8449 3.16125C12.8601 3.17354 12.8709 3.19042 12.8756 3.20936C12.8803 3.2283 12.8788 3.24827 12.8712 3.26625C12.8662 3.28542 12.8551 3.30243 12.8395 3.31463C12.8239 3.32683 12.8047 3.33355 12.7849 3.33375ZM9.94242 3.12L12.5187 3.1425L8.90367 0.194999H8.15367L9.94242 3.12Z" fill="black"/>
<path d="M21.0462 4.7025C20.3675 4.03125 19.0287 4.04625 17.9562 4.0575H17.5812L5.46875 3.99375C4.86047 3.98743 4.27326 3.77004 3.8075 3.37875L2.5325 2.31H0.5L3.0425 5.11875C3.21016 5.30443 3.41498 5.4528 3.64367 5.55422C3.87236 5.65565 4.11982 5.70787 4.37 5.7075H9.665C9.73864 5.70583 9.81131 5.72446 9.87506 5.76135C9.93882 5.79825 9.99118 5.85198 10.0264 5.91665C10.0617 5.98133 10.0784 6.05446 10.0749 6.12803C10.0713 6.2016 10.0476 6.27277 10.0063 6.33375L7.07 11.0737H9.00125L13.8762 5.82375C13.9138 5.7838 13.9591 5.75189 14.0094 5.72998C14.0597 5.70806 14.1139 5.69659 14.1688 5.69625H21.5C21.4634 5.32377 21.3037 4.97411 21.0462 4.7025Z" fill="black"/>
<path d="M9.00122 11.1675H7.06997C7.05361 11.1672 7.03755 11.163 7.02319 11.1551C7.00882 11.1473 6.99656 11.1361 6.98747 11.1225C6.97927 11.1076 6.97496 11.0908 6.97496 11.0737C6.97496 11.0567 6.97927 11.0399 6.98747 11.025L9.91997 6.26624C9.94852 6.22004 9.96364 6.1668 9.96364 6.11249C9.96364 6.05818 9.94852 6.00494 9.91997 5.95874C9.89409 5.91078 9.85562 5.87077 9.80871 5.84303C9.7618 5.81528 9.70822 5.80083 9.65372 5.80124H4.36997C4.10643 5.8022 3.84565 5.74759 3.60464 5.64097C3.36363 5.53436 3.14779 5.37813 2.97122 5.18249L0.428724 2.37374C0.419453 2.35848 0.414551 2.34097 0.414551 2.32312C0.414551 2.30526 0.419453 2.28775 0.428724 2.27249C0.433789 2.25645 0.443076 2.24207 0.455612 2.23085C0.468148 2.21963 0.483471 2.212 0.499974 2.20874H2.53247C2.5545 2.20896 2.57574 2.21693 2.59247 2.23124L3.85247 3.30374C4.30024 3.68243 4.8673 3.89092 5.45372 3.89249L17.5662 3.95999H17.9412C19.0325 3.95999 20.39 3.92999 21.0987 4.63124C21.3757 4.91984 21.5463 5.29409 21.5825 5.69249C21.5844 5.70587 21.5833 5.71951 21.5794 5.73245C21.5755 5.7454 21.5689 5.75735 21.56 5.76749C21.5411 5.78652 21.5155 5.79731 21.4887 5.79749H14.1837C14.1416 5.79808 14.1001 5.807 14.0615 5.82374C14.0229 5.84047 13.9879 5.86469 13.9587 5.89499L9.08372 11.145C9.07334 11.1559 9.06016 11.1638 9.04562 11.1678C9.03107 11.1717 9.01572 11.1716 9.00122 11.1675ZM7.23872 10.98H8.95997L13.835 5.77124C13.8832 5.72049 13.9414 5.68028 14.006 5.65317C14.0705 5.62606 14.14 5.61264 14.21 5.61374H21.3912C21.3451 5.29635 21.2009 5.00133 20.9787 4.76999C20.3262 4.12499 19.01 4.13624 17.9562 4.15124H17.5812L5.45372 4.08374C4.82325 4.08173 4.21371 3.8573 3.73247 3.44999L2.49497 2.39999H0.709974L3.12497 5.05499C3.28459 5.23063 3.47909 5.37105 3.69604 5.46726C3.913 5.56347 4.14764 5.61336 4.38497 5.61374H9.66497C9.75224 5.61449 9.83776 5.6383 9.91286 5.68275C9.98796 5.7272 10.05 5.79072 10.0926 5.86686C10.1353 5.94301 10.157 6.02907 10.1557 6.11633C10.1543 6.20359 10.1299 6.28894 10.085 6.36374L7.23872 10.98Z" fill="black"/>
</svg>
