<svg width="40" height="48" viewBox="0 0 40 48" fill="none" xmlns="http://www.w3.org/2000/svg">
<path d="M18.938 47.6178C19.5554 48.1274 20.4472 48.1274 21.0645 47.6178C31.0209 39.347 35.4601 31.7425 37.3906 27.1759C37.9492 25.9706 38.3804 24.6966 38.6842 23.3737C38.7724 22.9817 38.8116 22.7759 38.8116 22.7759C39.037 21.6 39.1546 20.3848 39.1546 19.1403C39.1448 8.35092 30.1977 -0.360905 19.3104 0.0114792C9.77543 0.344665 1.85737 7.78255 0.936209 17.2783C0.750017 19.1795 0.857812 21.0218 1.191 22.7759C1.191 22.7759 1.2204 22.9817 1.31839 23.3737C1.61238 24.6966 2.05336 25.9706 2.61194 27.1759C4.54245 31.7327 8.97186 39.347 18.938 47.6178ZM8.34469 19.3754C8.34469 12.9469 13.5581 7.72375 19.9964 7.72375C26.4347 7.72375 31.6481 12.9371 31.6481 19.3754C31.6481 25.8138 26.4249 31.0173 19.9964 31.0173C13.5679 31.0173 8.34469 25.804 8.34469 19.3754Z" fill="#4D4D4D"/>
</svg>
