<svg width="48" height="48" viewBox="0 0 48 48" fill="none" xmlns="http://www.w3.org/2000/svg">
<g clip-path="url(#clip0_21_1770)">
<path d="M22.9383 47.6178C23.5557 48.1274 24.4474 48.1274 25.0648 47.6178C35.0212 39.347 39.4604 31.7425 41.3909 27.1759C41.9495 25.9705 42.3806 24.6966 42.6844 23.3736C42.7726 22.9817 42.8118 22.7759 42.8118 22.7759C43.0372 21.5999 43.1548 20.3848 43.1548 19.1402C43.145 8.35089 34.198 -0.360935 23.3107 0.0114487C13.7757 0.344634 5.85761 7.78252 4.93645 17.2783C4.75026 19.1794 4.85806 21.0217 5.19124 22.7759C5.19124 22.7759 5.22064 22.9817 5.31864 23.3736C5.61262 24.6966 6.0536 25.9705 6.61218 27.1759C8.5427 31.7327 12.9721 39.347 22.9383 47.6178ZM12.3449 19.3754C12.3449 12.9469 17.5583 7.72372 23.9966 7.72372C30.435 7.72372 35.6483 12.9371 35.6483 19.3754C35.6483 25.8137 30.4252 31.0173 23.9966 31.0173C17.5681 31.0173 12.3449 25.8039 12.3449 19.3754Z" fill="#F37022"/>
</g>
<defs>
<clipPath id="clip0_21_1770">
<rect width="48" height="48" fill="white"/>
</clipPath>
</defs>
</svg>
