<svg width="18" height="18" viewBox="0 0 18 18" fill="none" xmlns="http://www.w3.org/2000/svg">
<path d="M4.48382 16.5054C5.30927 15.68 5.30927 14.3416 4.48382 13.5162C3.65837 12.6907 2.32005 12.6907 1.49461 13.5162C0.669158 14.3416 0.669157 15.68 1.49461 16.5054C2.32005 17.3309 3.65837 17.3309 4.48382 16.5054Z" fill="black"/>
<path d="M11.8656 12.8981H5.28003C5.79395 13.4542 6.10851 14.197 6.10851 15.0121C6.10851 15.3764 6.04552 15.7261 5.93019 16.0513H10.6251C10.789 16.0513 10.9425 15.9713 11.0364 15.8369L12.5429 13.6808C12.5431 13.6806 12.5432 13.6804 12.5434 13.6802L13.5977 12.1713L13.2664 10.8934L11.8656 12.8981Z" fill="black"/>
<path d="M14.6314 12.1599C14.9332 12.0263 15.26 11.9393 15.6027 11.9079L12.7756 1.00349H14.2769C14.554 1.00349 14.7787 0.778839 14.7787 0.501743C14.7787 0.224647 14.554 0 14.2769 0H12.1272C11.9719 0 11.8254 0.0718831 11.7304 0.194676C11.6354 0.31747 11.6026 0.477358 11.6416 0.627647L14.6314 12.1599Z" fill="black"/>
<path d="M15.8892 17.1262C17.0567 17.1262 18.0032 16.1797 18.0032 15.0121C18.0032 13.8446 17.0567 12.8981 15.8892 12.8981C14.7216 12.8981 13.7751 13.8446 13.7751 15.0121C13.7751 16.1797 14.7216 17.1262 15.8892 17.1262Z" fill="black"/>
</svg>
