<svg width="18" height="14" viewBox="0 0 18 14" fill="none" xmlns="http://www.w3.org/2000/svg">
<path fill-rule="evenodd" clip-rule="evenodd" d="M1.66671 13.6458C1.36281 13.6458 1.07137 13.5251 0.856481 13.3102C0.641595 13.0953 0.520874 12.8039 0.520874 12.5C0.520874 12.1961 0.641595 11.9046 0.856481 11.6898C1.07137 11.4749 1.36281 11.3541 1.66671 11.3541H5.33337C5.63727 11.3541 5.92872 11.4749 6.1436 11.6898C6.35849 11.9046 6.47921 12.1961 6.47921 12.5C6.47921 12.8039 6.35849 13.0953 6.1436 13.3102C5.92872 13.5251 5.63727 13.6458 5.33337 13.6458H1.66671ZM0.520874 6.99998C0.520874 7.63248 1.03421 8.14581 1.66671 8.14581H10.8334C11.1373 8.14581 11.4287 8.02509 11.6436 7.81021C11.8585 7.59532 11.9792 7.30387 11.9792 6.99998C11.9792 6.69609 11.8585 6.40464 11.6436 6.18975C11.4287 5.97487 11.1373 5.85415 10.8334 5.85415H1.66671C1.03421 5.85415 0.520874 6.36748 0.520874 6.99998ZM0.520874 1.49998C0.520874 2.13248 1.03421 2.64581 1.66671 2.64581H16.3334C16.6373 2.64581 16.9287 2.52509 17.1436 2.31021C17.3585 2.09532 17.4792 1.80387 17.4792 1.49998C17.4792 1.19609 17.3585 0.904637 17.1436 0.689752C16.9287 0.474867 16.6373 0.354146 16.3334 0.354146H1.66671C1.03421 0.354146 0.520874 0.867479 0.520874 1.49998Z" fill="black"/>
</svg>
