<svg width="18" height="14" viewBox="0 0 18 14" fill="none" xmlns="http://www.w3.org/2000/svg">
<path fill-rule="evenodd" clip-rule="evenodd" d="M1.66671 0.354187C1.36281 0.354187 1.07137 0.474908 0.856481 0.689794C0.641595 0.904679 0.520874 1.19613 0.520874 1.50002C0.520874 1.80391 0.641595 2.09536 0.856481 2.31025C1.07137 2.52513 1.36281 2.64585 1.66671 2.64585H5.33337C5.63727 2.64585 5.92872 2.52513 6.1436 2.31025C6.35849 2.09536 6.47921 1.80391 6.47921 1.50002C6.47921 1.19613 6.35849 0.904679 6.1436 0.689794C5.92872 0.474908 5.63727 0.354187 5.33337 0.354187H1.66671ZM0.520874 7.00002C0.520874 6.36752 1.03421 5.85419 1.66671 5.85419H10.8334C11.1373 5.85419 11.4287 5.97491 11.6436 6.18979C11.8585 6.40468 11.9792 6.69613 11.9792 7.00002C11.9792 7.30391 11.8585 7.59536 11.6436 7.81025C11.4287 8.02513 11.1373 8.14585 10.8334 8.14585H1.66671C1.03421 8.14585 0.520874 7.63252 0.520874 7.00002ZM0.520874 12.5C0.520874 11.8675 1.03421 11.3542 1.66671 11.3542H16.3334C16.6373 11.3542 16.9287 11.4749 17.1436 11.6898C17.3585 11.9047 17.4792 12.1961 17.4792 12.5C17.4792 12.8039 17.3585 13.0954 17.1436 13.3102C16.9287 13.5251 16.6373 13.6459 16.3334 13.6459H1.66671C1.03421 13.6459 0.520874 13.1325 0.520874 12.5Z" fill="black"/>
</svg>
