<svg width="19" height="16" viewBox="0 0 19 16" fill="none" xmlns="http://www.w3.org/2000/svg">
<path d="M17.6012 10.9493V9.10286C17.6012 8.52492 17.3699 7.97086 16.9589 7.56447L16.1901 6.80459L15.4492 3.08696C15.2476 2.0751 14.3595 1.34647 13.3277 1.34647H12.69V0.946607C12.69 0.42383 12.2661 0 11.7433 0H7.25663C6.73381 0 6.31002 0.42383 6.31002 0.946607V1.34647H5.67229C4.64054 1.34647 3.75238 2.0751 3.55072 3.08696L2.80984 6.80464L2.04118 7.56451C1.63016 7.9709 1.39882 8.52488 1.39882 9.10286V10.9496C1.06342 11.2099 0.846924 11.6165 0.846924 12.0731V12.9898C0.846924 13.7739 1.48483 14.4118 2.26898 14.4118H2.67766V15.5726C2.67766 15.8086 2.86903 16 3.10504 16H4.90558C5.14155 16 5.33291 15.8086 5.33291 15.5726V14.4118H13.6671V15.5726C13.6671 15.8086 13.8585 16 14.0945 16H15.8949C16.1309 16 16.3223 15.8086 16.3223 15.5726V14.4118H16.7309C17.5151 14.4118 18.153 13.7739 18.153 12.9898V12.0731C18.1532 11.6223 17.9397 11.2121 17.6012 10.9493ZM15.1246 9.97085C15.1246 10.4632 14.8139 10.8829 14.3779 11.0448H13.5802C13.1443 10.8829 12.8335 10.4632 12.8335 9.97085C12.8335 9.33823 13.3464 8.82536 13.9791 8.82536C14.6117 8.82536 15.1246 9.33823 15.1246 9.97085ZM7.76942 1.20858C7.76942 1.14269 7.82285 1.08921 7.88879 1.08921H8.41394V0.564097C8.41394 0.498203 8.46733 0.44477 8.53327 0.44477H9.17775C9.24369 0.44477 9.29717 0.49816 9.29717 0.564097V1.08925H9.70291V0.564097C9.70291 0.498203 9.7563 0.44477 9.82237 0.44477H10.4669C10.5327 0.44477 10.5862 0.49816 10.5862 0.564097V1.08925H11.1114C11.1772 1.08925 11.2308 1.14269 11.2308 1.20862V1.85311C11.2308 1.91896 11.1774 1.97243 11.1114 1.97243H10.4669C10.401 1.97243 10.3475 1.919 10.3475 1.85311V1.32795H9.94174V1.85311C9.94174 1.919 9.88835 1.97243 9.82241 1.97243H9.17784C9.11195 1.97243 9.05851 1.91904 9.05851 1.85311V1.32795H8.65273V1.85311C8.65273 1.91896 8.59934 1.97243 8.53331 1.97243H7.88883C7.82294 1.97243 7.76946 1.919 7.76946 1.85311L7.76942 1.20858ZM5.29943 3.76121C5.42074 3.15168 5.95603 2.71271 6.57749 2.71271H12.4226C13.0441 2.71271 13.5792 3.15168 13.7006 3.76121L14.147 6.00089H4.8531L5.29943 3.76121ZM11.53 10.2577C11.53 10.6078 11.3217 10.9086 11.0225 11.0448H7.97752C7.67838 10.9086 7.47006 10.6077 7.47006 10.2577C7.47006 9.77979 7.85746 9.39239 8.33537 9.39239H10.6646C11.1425 9.39239 11.53 9.77979 11.53 10.2577ZM5.02106 8.82536C5.65369 8.82536 6.1666 9.33823 6.1666 9.97085C6.1666 10.4632 5.85591 10.8829 5.41992 11.0448H4.62219C4.18616 10.8829 3.87551 10.4632 3.87551 9.97085C3.87551 9.33823 4.38838 8.82536 5.02106 8.82536ZM16.7416 12.9898C16.7416 12.9955 16.7368 13.0003 16.7311 13.0003H2.26898C2.26327 13.0003 2.25846 12.9955 2.25846 12.9898V12.0731C2.25846 12.0674 2.26327 12.0626 2.26898 12.0626H16.7311C16.7368 12.0626 16.7416 12.0674 16.7416 12.0731V12.9898Z" fill="black"/>
</svg>
